<svg width="43" height="48" viewBox="0 0 43 48" fill="none" xmlns="http://www.w3.org/2000/svg">
<path d="M37.9538 31.5623C34.6415 30.0016 30.4163 31.2616 28.4898 34.3738C26.5025 37.5841 27.3531 42.0027 30.3712 44.2511C31.1821 44.8572 32.1081 45.2913 33.0926 45.527C33.4901 45.6184 33.975 45.6237 34.3341 45.8212C34.6295 45.9828 34.7315 46.3405 34.7859 46.6665C34.8164 46.9991 34.8204 47.3335 34.7978 47.6668C34.7912 47.9689 34.7686 48.0643 35.0906 47.9583C35.6735 47.7366 36.2292 47.449 36.7468 47.101C40.0723 44.9957 42.8308 41.1177 42.073 37.0223C41.637 34.6812 40.1266 32.5825 37.9538 31.5623Z" fill="#8BD8BD"/>
<path d="M42.5618 13.3128C42.5618 24.1772 34.562 30.9595 21.8003 30.9595H12.2741L9.95415 42.7513H0L8.54973 0H25.836C36.5162 0 42.5618 4.94594 42.5618 13.3128ZM32.5481 14.1674C32.5481 10.0151 29.616 8.06083 24.6091 8.06083H16.853L13.8614 22.9H22.2269C28.7614 22.8987 32.5481 19.846 32.5481 14.1674Z" fill="#132048"/>
</svg>
